<svg fill="none" viewBox="0 0 1000 674.64" width="60" xmlns="http://www.w3.org/2000/svg"><path d="m780.9,0c-120.81,0-219.1,97.22-219.1,216.73s90.68,210.39,206.44,210.39c7.6,0,15.33-.51,23.13-1.54l-146.78,199.98,71.92,49.08,225.56-306.86c26.97-37.34,57.92-88.25,57.92-151.05C1000,97.22,901.71,0,780.9,0Zm125.93,214.35c0,69.72-55.31,124.34-125.93,124.34s-125.92-54.62-125.92-124.34,56.49-125.92,125.92-125.92,125.93,56.49,125.93,125.92Z" fill="#008ece"></path><path d="m42.91,583.71h96.52v39.85H0V234.91h42.91v348.79Z" fill="#008ece"></path><path d="m378.91,623.56h-40.87v-33.21h-1.02c-20.95,26.56-49.04,39.85-82.76,39.85-70.5,0-114.94-59.77-114.94-126.18s43.42-127.21,115.45-127.21c32.7,0,62.33,15.33,82.25,40.87h1.02v-34.23h40.87v240.11Zm-197.7-122.61c0,47,27.59,91.45,78.67,91.45s80.21-42.4,80.21-90.93-30.14-86.84-80.72-86.84c-47.51,0-78.16,41.38-78.16,86.33Z" fill="#008ece"></path><path d="m413.08,233.79h40.87v182.81h1.02c19.41-25.54,49.55-40.87,82.25-40.87,71.52,0,115.45,58.75,115.45,126.69s-44.44,126.69-114.94,126.69c-33.2,0-63.35-13.79-82.76-39.85h-1.02v33.21h-40.87V233.79Zm38.83,266.08c0,47,27.59,91.45,78.67,91.45s80.21-42.4,80.21-90.93-30.14-86.85-80.72-86.85c-47.51,0-78.16,41.38-78.16,86.33Z" fill="#008ece"></path></svg>